<?xml version="1.0" standalone="no"?>
<!DOCTYPE svg PUBLIC "-//W3C//DTD SVG 20010904//EN"
 "http://www.w3.org/TR/2001/REC-SVG-20010904/DTD/svg10.dtd">
<svg version="1.0" xmlns="http://www.w3.org/2000/svg"
 width="350.000000pt" height="350.000000pt" viewBox="0 0 350.000000 350.000000"
 preserveAspectRatio="xMidYMid meet">

<g transform="translate(0.000000,350.000000) scale(0.100000,-0.100000)"
fill="#000000" stroke="none">
<path d="M1726 3141 c-3 -4 -39 -6 -81 -3 -77 5 -97 -6 -47 -25 l27 -10 -46
-21 c-26 -12 -54 -19 -67 -15 -19 4 -21 2 -16 -13 4 -11 11 -25 17 -31 15 -20
-33 -16 -55 4 -17 15 -18 15 -18 -13 0 -16 7 -40 16 -52 14 -21 14 -22 -8 -22
-13 0 -29 5 -36 12 -16 16 -15 3 3 -32 8 -16 25 -36 37 -44 21 -15 21 -16 3
-16 -19 0 -19 -1 2 -18 28 -22 42 -76 36 -138 -6 -54 17 -124 39 -124 10 0 12
18 10 75 -2 41 -1 86 2 100 13 51 22 22 22 -72 1 -143 23 -214 90 -280 44 -44
59 -53 89 -53 47 0 83 19 128 69 53 59 72 130 72 278 0 66 3 119 7 117 15 -10
29 -118 23 -175 -8 -65 3 -77 31 -34 21 32 30 101 15 118 -7 10 -8 23 -2 43 5
16 12 59 15 95 5 58 4 68 -14 84 -11 10 -20 31 -20 47 0 43 -27 88 -63 105
-18 8 -48 23 -67 34 -36 20 -134 27 -144 10z m214 -106 c25 -30 5 -23 -35 12
-37 32 -37 34 -9 20 17 -9 36 -23 44 -32z m-78 -1 c29 -15 58 -61 58 -91 -1
-11 -6 -6 -15 14 -20 47 -65 66 -170 73 l-90 6 55 11 c62 12 121 8 162 -13z
m-23 -50 c17 -14 31 -34 31 -44 0 -15 -5 -14 -29 11 -35 34 -82 38 -171 14
-86 -23 -92 -17 -15 15 90 37 143 39 184 4z m-64 -48 c33 -14 51 -34 20 -22
-21 8 -59 -8 -103 -43 -20 -17 -50 -33 -67 -36 -30 -7 -30 -7 8 19 48 34 48
49 0 29 -40 -16 -107 -13 -126 6 -8 8 -3 10 19 5 32 -6 62 1 154 35 67 25 54
24 95 7z"/>
<path d="M1318 2621 c-211 -90 -415 -287 -527 -509 -76 -151 -123 -374 -107
-506 l8 -59 27 47 c23 39 29 64 34 139 22 346 237 659 561 818 44 21 86 39 92
39 18 0 24 13 17 38 -7 29 -24 27 -105 -7z"/>
<path d="M2090 2642 c0 -6 -3 -17 -6 -25 -4 -11 17 -26 80 -55 124 -58 214
-123 304 -216 168 -175 281 -430 282 -636 0 -55 5 -72 29 -108 22 -34 30 -40
35 -27 18 49 -10 279 -49 400 -63 193 -197 383 -359 511 -110 87 -316 189
-316 156z"/>
<path d="M1885 2393 c-80 -88 -162 -90 -247 -6 l-48 47 0 -54 c0 -59 19 -108
88 -227 25 -43 44 -92 51 -134 7 -36 16 -71 20 -78 8 -12 42 68 57 133 4 15
28 67 55 115 52 94 72 158 67 213 l-3 35 -40 -44z"/>
<path d="M1474 2269 l-68 -101 22 -19 23 -18 -50 -26 c-40 -20 -51 -31 -51
-49 0 -64 76 -305 144 -460 28 -63 32 -86 15 -86 -28 0 -152 321 -183 472 -23
110 -22 115 24 138 36 18 39 23 30 41 -10 17 -6 27 24 64 20 24 36 46 36 49 0
3 -30 -7 -67 -21 -38 -14 -110 -39 -160 -55 -51 -16 -93 -31 -93 -33 0 -2 7
-37 15 -77 18 -84 47 -319 40 -326 -2 -2 -6 6 -9 19 -14 58 -55 279 -61 327
-4 28 -10 52 -15 52 -7 0 -171 -372 -166 -377 1 -1 31 7 66 18 96 30 92 18
-10 -30 -66 -31 -97 -52 -110 -74 -11 -17 -18 -32 -16 -34 1 -1 27 6 57 16 67
24 141 37 119 22 -8 -6 -54 -25 -103 -42 -92 -33 -104 -43 -147 -128 -20 -40
-20 -43 -3 -36 79 33 149 30 198 -9 l30 -24 -62 20 c-109 36 -196 5 -221 -80
-16 -54 -15 -90 7 -137 14 -33 31 -47 82 -75 35 -18 100 -57 144 -85 117 -76
209 -125 233 -125 21 0 102 64 102 80 0 4 -20 11 -45 14 l-45 7 0 67 c0 74 22
125 59 137 38 12 22 25 -29 25 -53 0 -83 -12 -160 -62 l-45 -29 48 45 c46 44
48 46 23 46 -14 0 -60 -12 -101 -26 -42 -14 -78 -24 -81 -21 -7 7 119 67 139
67 9 0 19 5 22 10 10 15 -105 12 -160 -5 -27 -8 -51 -13 -53 -10 -7 6 41 28
103 47 l60 17 -78 -2 c-82 -2 -96 4 -47 22 17 5 30 12 30 15 0 8 -72 -5 -110
-20 l-35 -14 23 20 c60 50 147 48 210 -5 17 -14 34 -25 39 -25 5 0 35 54 68
120 33 66 62 120 66 120 9 0 37 -129 45 -207 6 -51 10 -62 28 -67 40 -11 57
-6 82 24 14 16 42 35 62 41 45 13 63 26 86 62 21 30 31 34 40 12 11 -30 -16
-76 -68 -111 -49 -33 -50 -34 -21 -34 17 0 54 14 83 31 51 29 54 32 48 62 -61
348 -77 655 -43 836 10 51 16 95 14 98 -3 2 -35 -42 -73 -98z m-116 -784 c0
-16 -2 -15 -8 5 -11 34 -11 60 0 35 5 -11 8 -29 8 -40z m-310 -393 c2 -7 -3
-12 -12 -12 -9 0 -16 7 -16 16 0 17 22 14 28 -4z m40 -20 c2 -7 -3 -12 -12
-12 -9 0 -16 7 -16 16 0 17 22 14 28 -4z m42 -23 c0 -24 -23 -21 -28 4 -2 10
3 17 12 17 10 0 16 -9 16 -21z"/>
<path d="M1970 2348 c0 -13 5 -41 10 -63 42 -179 32 -416 -36 -843 -6 -39 -5
-41 33 -66 46 -31 95 -47 112 -37 6 4 -9 19 -38 36 -49 28 -71 58 -71 95 0 28
22 25 51 -6 13 -14 41 -35 62 -45 21 -11 55 -35 75 -53 35 -32 39 -33 72 -22
33 11 35 14 42 71 10 82 38 205 46 205 4 -1 30 -49 57 -107 56 -118 73 -145
82 -125 6 16 58 43 100 53 41 9 100 -6 133 -33 20 -16 21 -18 5 -12 -49 18
-111 31 -120 26 -5 -4 5 -10 23 -16 52 -14 37 -21 -40 -19 l-73 3 68 -23 c37
-13 73 -30 80 -37 10 -10 8 -12 -7 -6 -52 18 -107 27 -151 24 -38 -3 -45 -6
-30 -12 53 -21 146 -68 143 -72 -2 -2 -39 8 -81 21 -116 37 -129 34 -76 -16
42 -39 42 -40 9 -20 -93 57 -130 72 -166 65 -42 -8 -52 -20 -23 -29 30 -10 59
-80 59 -147 l0 -58 -40 -6 c-22 -4 -43 -10 -45 -14 -3 -4 15 -26 40 -49 l44
-40 47 20 c60 27 132 70 208 124 34 23 84 54 111 68 95 50 116 79 116 162 0
70 -23 109 -79 136 -35 18 -54 20 -99 15 -30 -4 -64 -11 -75 -17 -30 -16 -33
-3 -3 17 38 25 113 29 159 10 50 -21 49 -21 32 17 -37 89 -59 111 -137 136
-41 13 -85 30 -99 38 -24 13 -24 14 15 8 22 -4 64 -17 93 -30 37 -17 52 -20
52 -11 0 30 -46 68 -128 108 -96 46 -98 63 -3 25 34 -14 61 -23 61 -21 0 2
-24 62 -53 132 -29 70 -64 155 -77 190 -37 93 -34 97 -70 -117 -26 -154 -40
-221 -47 -221 -9 0 7 154 28 278 10 63 19 119 19 125 0 7 -37 23 -83 37 -45
13 -115 37 -155 52 -40 15 -76 28 -79 28 -3 0 11 -20 32 -45 29 -36 36 -51 31
-71 -6 -23 -2 -27 35 -42 l41 -16 -7 -45 c-3 -25 -15 -83 -26 -129 -10 -46
-19 -88 -19 -94 0 -10 21 -8 84 8 22 5 26 3 26 -14 0 -17 -10 -23 -55 -33 -31
-7 -62 -17 -69 -23 -8 -6 -35 -61 -60 -122 -51 -122 -68 -150 -83 -141 -7 4 4
43 29 104 84 210 147 425 134 459 -3 7 -26 22 -52 33 -44 20 -46 22 -30 39 9
10 16 22 16 26 0 9 -121 196 -126 196 -2 0 -4 -10 -4 -22z m156 -292 c10 -8
16 -17 13 -21 -8 -7 -59 15 -59 27 0 13 24 10 46 -6z m41 -563 c-3 -10 -5 -4
-5 12 0 17 2 24 5 18 2 -7 2 -21 0 -30z m326 -389 c8 -8 -3 -34 -14 -34 -5 0
-9 9 -9 20 0 19 11 26 23 14z m-40 -20 c8 -8 -3 -34 -14 -34 -5 0 -9 9 -9 20
0 19 11 26 23 14z m-33 -28 c0 -16 -18 -31 -27 -22 -8 8 5 36 17 36 5 0 10 -6
10 -14z"/>
<path d="M1582 2129 l-42 -42 5 -66 c2 -36 7 -103 10 -149 8 -116 51 -415 71
-487 26 -94 28 -182 6 -219 -13 -22 -21 -62 -25 -126 -4 -52 -16 -144 -28
-205 -11 -60 -23 -123 -25 -140 -5 -26 -1 -33 28 -50 18 -11 36 -20 40 -20 3
0 35 44 71 99 l65 98 66 -101 c37 -55 70 -101 74 -101 4 0 22 13 40 28 l33 27
-16 70 c-19 82 -45 280 -45 344 0 28 -6 51 -17 64 -31 33 -26 178 8 277 18 52
59 371 65 513 l7 148 -38 39 c-45 46 -51 48 -60 19 -5 -16 2 -30 30 -59 35
-35 37 -41 30 -80 -18 -109 -103 -316 -161 -394 -14 -20 -14 -20 -28 0 -61 81
-145 288 -161 394 -6 40 -4 48 20 70 35 32 46 55 39 74 -9 23 -16 20 -62 -25z
m198 -624 c14 -17 5 -35 -19 -35 -25 0 -32 10 -20 31 12 23 22 24 39 4z m5
-150 c0 -13 -8 -21 -22 -23 -19 -3 -23 1 -23 23 0 22 4 26 23 23 14 -2 22 -10
22 -23z m-8 -126 c16 -16 5 -39 -18 -39 -12 0 -19 7 -19 18 0 31 17 41 37 21z
m9 -140 c3 -6 -1 -18 -9 -27 -13 -12 -19 -13 -31 -3 -8 7 -12 19 -9 27 6 17
39 19 49 3z m-1 -154 c0 -21 -31 -33 -46 -18 -5 5 -7 17 -3 27 9 24 49 17 49
-9z"/>
<path d="M1750 1846 c0 -17 27 -29 35 -16 4 6 3 15 0 20 -9 15 -35 12 -35 -4z"/>
<path d="M1750 1675 c0 -8 7 -15 15 -15 8 0 15 7 15 15 0 8 -7 15 -15 15 -8 0
-15 -7 -15 -15z"/>
<path d="M1540 1320 c-52 -38 -72 -60 -53 -60 18 0 113 71 113 85 0 19 4 21
-60 -25z"/>
<path d="M1916 1353 c-13 -13 -4 -22 55 -57 58 -35 86 -45 75 -28 -10 16 -124
90 -130 85z"/>
<path d="M1558 1253 c-57 -42 -64 -64 -10 -32 46 28 72 49 72 61 0 14 -13 8
-62 -29z"/>
<path d="M1900 1280 c0 -13 109 -85 117 -77 3 4 4 8 2 10 -47 35 -108 77 -113
77 -3 0 -6 -4 -6 -10z"/>
<path d="M1254 1245 c-18 -43 -18 -115 -1 -139 13 -18 17 -18 103 -1 49 9 92
20 96 24 4 3 -33 4 -82 3 l-89 -4 -7 27 c-3 14 -4 48 -2 76 3 27 3 49 1 49 -2
0 -11 -16 -19 -35z"/>
<path d="M2248 1225 c2 -25 1 -57 -2 -71 -7 -26 -7 -26 -96 -22 -50 1 -90 1
-90 -2 0 -9 179 -43 194 -37 30 12 32 121 3 161 -10 14 -12 9 -9 -29z"/>
<path d="M1562 1193 c-64 -41 -63 -53 1 -22 39 19 66 45 55 54 -2 1 -27 -13
-56 -32z"/>
<path d="M1900 1222 c0 -16 17 -30 58 -51 24 -12 47 -20 50 -17 7 7 9 5 -55
44 -29 18 -53 28 -53 24z"/>
<path d="M1515 1123 c-33 -13 -84 -26 -113 -30 -48 -5 -56 -10 -83 -49 -35
-51 -35 -54 -6 -54 12 0 33 -3 46 -7 22 -6 23 -8 16 -71 -10 -97 -7 -94 -86
-86 l-68 6 -6 -38 c-4 -22 -23 -118 -41 -214 -19 -96 -34 -178 -34 -183 0 -17
86 -47 139 -47 50 0 57 3 93 41 73 76 127 218 168 437 17 94 43 314 37 318 -1
0 -29 -10 -62 -23z m19 -118 c8 -23 -4 -45 -25 -45 -11 0 -22 7 -25 15 -9 23
3 45 25 45 10 0 21 -7 25 -15z"/>
<path d="M1944 1082 c35 -359 100 -584 196 -684 43 -45 50 -48 96 -47 67 0
139 29 138 54 0 11 -18 112 -39 223 l-39 204 -70 -4 c-67 -3 -70 -2 -77 22 -4
14 -7 48 -8 76 -1 55 8 64 67 64 29 0 28 4 -13 55 -31 38 -42 44 -88 49 -29 4
-78 18 -111 31 l-58 24 6 -67z m106 -80 c0 -15 -48 -33 -56 -21 -4 6 0 15 7
20 18 11 49 12 49 1z"/>
<path d="M2570 1029 c-14 -11 -63 -48 -110 -81 -47 -34 -87 -63 -89 -64 -2 -2
0 -15 3 -29 l7 -26 43 30 c68 47 204 192 179 191 -4 -1 -19 -10 -33 -21z"/>
<path d="M926 1011 c21 -37 126 -137 172 -163 28 -17 29 -17 40 6 9 21 4 27
-59 77 -38 30 -92 67 -121 83 l-51 30 19 -33z"/>
<path d="M1231 920 c-6 -29 -10 -54 -8 -56 2 -2 28 -6 59 -10 l56 -6 11 52 c6
29 10 54 8 56 -2 2 -28 6 -59 10 l-56 6 -11 -52z"/>
<path d="M2182 963 c-22 -4 -23 -8 -17 -56 4 -29 9 -53 10 -55 2 -2 31 0 64 4
l62 7 -7 31 c-14 67 -21 76 -56 75 -18 -1 -43 -4 -56 -6z"/>
<path d="M1750 735 c0 -8 7 -15 15 -15 8 0 15 7 15 15 0 8 -7 15 -15 15 -8 0
-15 -7 -15 -15z"/>
<path d="M1691 670 c-4 -3 -18 -24 -31 -47 -13 -24 -26 -43 -29 -43 -3 0 -25
11 -49 25 l-43 25 -15 -37 c-9 -19 -12 -39 -7 -44 4 -4 52 -23 105 -42 l98
-35 10 41 c6 23 14 51 19 62 7 17 9 15 19 -15 5 -19 13 -47 16 -62 l6 -28 98
35 c53 20 102 37 109 40 9 3 8 14 -4 44 l-16 40 -42 -24 c-23 -14 -46 -25 -51
-25 -6 0 -20 20 -31 44 l-22 44 -66 4 c-37 1 -70 1 -74 -2z"/>
</g>
</svg>
